<?xml version="1.0" encoding="UTF-8" standalone="no"?>
<!-- Created with Inkscape (http://www.inkscape.org/) -->

<svg
   xmlns:dc="http://purl.org/dc/elements/1.1/"
   xmlns:cc="http://creativecommons.org/ns#"
   xmlns:rdf="http://www.w3.org/1999/02/22-rdf-syntax-ns#"
   xmlns:svg="http://www.w3.org/2000/svg"
   xmlns="http://www.w3.org/2000/svg"
   xmlns:sodipodi="http://sodipodi.sourceforge.net/DTD/sodipodi-0.dtd"
   xmlns:inkscape="http://www.inkscape.org/namespaces/inkscape"
   width="744.09448819"
   height="1052.3622047"
   id="svg2"
   version="1.1"
   inkscape:version="0.91 r13725"
   sodipodi:docname="comanned scraps1.svg">
  <defs
     id="defs4" />
  <sodipodi:namedview
     id="base"
     pagecolor="#ffffff"
     bordercolor="#666666"
     borderopacity="1.0"
     inkscape:pageopacity="0.0"
     inkscape:pageshadow="2"
     inkscape:zoom="1"
     inkscape:cx="373.28666"
     inkscape:cy="300.5939"
     inkscape:document-units="px"
     inkscape:current-layer="layer1"
     showgrid="true"
     inkscape:window-width="1280"
     inkscape:window-height="979"
     inkscape:window-x="0"
     inkscape:window-y="0"
     inkscape:window-maximized="1"
     inkscape:snap-page="true">
    <inkscape:grid
       type="xygrid"
       id="grid2985" />
  </sodipodi:namedview>
  <metadata
     id="metadata7">
    <rdf:RDF>
      <cc:Work
         rdf:about="">
        <dc:format>image/svg+xml</dc:format>
        <dc:type
           rdf:resource="http://purl.org/dc/dcmitype/StillImage" />
        <dc:title />
      </cc:Work>
    </rdf:RDF>
  </metadata>
  <g
     inkscape:label="Layer 1"
     inkscape:groupmode="layer"
     id="layer1">
    <path
       style="fill:#000000;stroke:#000000;stroke-width:1.15470052;stroke-linecap:butt;stroke-linejoin:round;stroke-miterlimit:4;stroke-dasharray:none;stroke-dashoffset:0;stroke-opacity:1"
       d="m 336.06092,51.156694 20,20 40,0 20,-20 -80,0 z"
       id="rect2991"
       inkscape:connector-curvature="0"
       inkscape:export-filename="C:\Users\Anthony\Dropbox\rect3043.png"
       inkscape:export-xdpi="90"
       inkscape:export-ydpi="90" />
    <path
       style="fill:#000000;fill-opacity:1;stroke:#000000;stroke-width:1.22500646;stroke-linecap:butt;stroke-linejoin:round;stroke-miterlimit:4;stroke-dasharray:none;stroke-dashoffset:0;stroke-opacity:1"
       d="m 166.06092,81.143874 35,29.999996 145,0.0128 0,-30.012816 z"
       id="rect2993"
       inkscape:connector-curvature="0"
       sodipodi:nodetypes="ccccc"
       inkscape:export-filename="C:\Users\Anthony\Dropbox\rect3043.png"
       inkscape:export-xdpi="90"
       inkscape:export-ydpi="90" />
    <path
       style="fill:#000000;fill-opacity:1;stroke:#000000;stroke-width:1.22500646;stroke-linecap:butt;stroke-linejoin:round;stroke-miterlimit:4;stroke-dasharray:none;stroke-dashoffset:0;stroke-opacity:1"
       d="m 206.06092,121.14387 35,30 105,0.0128 0,-30.01282 z"
       id="rect2995"
       inkscape:connector-curvature="0"
       sodipodi:nodetypes="ccccc"
       inkscape:export-filename="C:\Users\Anthony\Dropbox\rect3043.png"
       inkscape:export-xdpi="90"
       inkscape:export-ydpi="90" />
    <path
       style="fill:#000000;fill-opacity:1;stroke:#000000;stroke-width:1.22500646;stroke-linecap:butt;stroke-linejoin:round;stroke-miterlimit:4;stroke-dasharray:none;stroke-dashoffset:0;stroke-opacity:1"
       d="m 246.06092,161.14387 30,30 70,0.0128 0,-30.01282 z"
       id="rect2997"
       inkscape:connector-curvature="0"
       sodipodi:nodetypes="ccccc"
       inkscape:export-filename="C:\Users\Anthony\Dropbox\rect3043.png"
       inkscape:export-xdpi="90"
       inkscape:export-ydpi="90" />
    <path
       style="fill:#000000;fill-opacity:1;stroke:#000000;stroke-width:1.22500646;stroke-linecap:butt;stroke-linejoin:round;stroke-miterlimit:4;stroke-dasharray:none;stroke-dashoffset:0;stroke-opacity:1"
       d="m 406.06092,81.143874 0,30.012816 150,-0.0128 30,-29.999996 z"
       id="rect2999"
       inkscape:connector-curvature="0"
       sodipodi:nodetypes="ccccc"
       inkscape:export-filename="C:\Users\Anthony\Dropbox\rect3043.png"
       inkscape:export-xdpi="90"
       inkscape:export-ydpi="90" />
    <path
       style="fill:#000000;fill-opacity:1;stroke:#000000;stroke-width:1.22500646;stroke-linecap:butt;stroke-linejoin:round;stroke-miterlimit:4;stroke-dasharray:none;stroke-dashoffset:0;stroke-opacity:1"
       d="m 406.06092,161.14387 0,30.01282 70,-0.0128 30,-30 z"
       id="rect3004"
       inkscape:connector-curvature="0"
       sodipodi:nodetypes="ccccc"
       inkscape:export-filename="C:\Users\Anthony\Dropbox\rect3043.png"
       inkscape:export-xdpi="90"
       inkscape:export-ydpi="90" />
    <path
       style="fill:#000000;fill-opacity:1;stroke:#000000;stroke-width:1.22500646;stroke-linecap:butt;stroke-linejoin:round;stroke-miterlimit:4;stroke-dasharray:none;stroke-dashoffset:0;stroke-opacity:1"
       d="m 406.06092,121.14387 0,30.01282 110,-0.0128 30,-30 z"
       id="rect3006"
       inkscape:connector-curvature="0"
       sodipodi:nodetypes="ccccc"
       inkscape:export-filename="C:\Users\Anthony\Dropbox\rect3043.png"
       inkscape:export-xdpi="90"
       inkscape:export-ydpi="90" />
    <path
       style="fill:#000000;fill-opacity:1;stroke:#000000;stroke-width:1;stroke-linecap:butt;stroke-linejoin:round;stroke-miterlimit:4;stroke-dasharray:none;stroke-dashoffset:0;stroke-opacity:1"
       d="m 366.06092,36.143874 0,179.999996 10,20 10,-20 0,-179.999996 -20,0 z"
       id="rect3008"
       inkscape:connector-curvature="0"
       inkscape:export-filename="C:\Users\Anthony\Dropbox\rect3043.png"
       inkscape:export-xdpi="90"
       inkscape:export-ydpi="90" />
    <circle
       style="fill:#000000;fill-opacity:1;stroke:#000000;stroke-width:1;stroke-linecap:butt;stroke-linejoin:round;stroke-miterlimit:4;stroke-dasharray:none;stroke-dashoffset:0;stroke-opacity:1"
       id="path3035"
       inkscape:export-filename="C:\Users\Anthony\Dropbox\rect3043.png"
       inkscape:export-xdpi="90"
       inkscape:export-ydpi="90"
       cx="376.06091"
       cy="28.643879"
       r="12.5" />
    <rect
       style="fill:#ffffff;fill-opacity:1;stroke:#000000;stroke-width:0.92546058;stroke-linecap:butt;stroke-linejoin:round;stroke-miterlimit:4;stroke-dasharray:none;stroke-dashoffset:0;stroke-opacity:1"
       id="rect3043"
       width="4.894156"
       height="140"
       x="373.77585"
       y="76.143875"
       inkscape:export-xdpi="90"
       inkscape:export-ydpi="90" />
    <path
       style="fill:#000000;fill-opacity:1;stroke:#000000;stroke-width:7.5412178;stroke-linecap:butt;stroke-linejoin:round;stroke-miterlimit:4;stroke-dasharray:none;stroke-dashoffset:0;stroke-opacity:1"
       d="m 355.47606,329.49988 0,26.29766 c -4.22452,1.34991 -8.28132,3.08056 -12.14575,5.13589 l -18.26534,-18.64138 -31.71909,32.28954 18.26534,18.64138 c -2.01793,3.93269 -3.71971,8.06522 -5.04516,12.36418 l -25.83307,0 0,45.65237 25.87979,0 c 1.32279,4.27848 2.98945,8.40136 4.99844,12.31662 l -18.26534,18.64139 31.71909,32.28953 18.26534,-18.64138 c 3.86443,2.05533 7.92123,3.83354 12.14575,5.18345 l 0,26.29766 44.84584,0 0,-26.29766 c 4.22453,-1.34991 8.28133,-3.12812 12.14575,-5.18345 l 18.26534,18.64138 31.71909,-32.28953 -18.26534,-18.64139 c 2.00899,-3.91526 3.67566,-8.03814 4.99845,-12.31662 l 25.87978,0 0,-45.65237 -25.83307,0 c -1.32545,-4.29896 -3.02723,-8.43149 -5.04516,-12.36418 l 18.26534,-18.64138 -31.71909,-32.28954 -18.26534,18.64138 c -3.86442,-2.05533 -7.92122,-3.78598 -12.14575,-5.13589 l 0,-26.29766 -44.84584,0 z m 20.55435,60.82226 c 0.616,0.0162 1.22358,0.0476 1.86857,0.0476 20.6397,0 37.37154,17.03274 37.37154,38.04363 0,21.0109 -16.73184,38.04364 -37.37154,38.04364 -20.6397,0 -37.37153,-17.03274 -37.37153,-38.04364 0,-19.6977 14.78956,-36.09542 33.63438,-38.04363 0.62817,-0.065 1.25257,-0.0638 1.86858,-0.0476 z"
       id="path3068"
       inkscape:connector-curvature="0"
       inkscape:export-filename="C:\Users\Anthony\Dropbox\path3141.png"
       inkscape:export-xdpi="90"
       inkscape:export-ydpi="90" />
    <path
       style="fill:#000000;fill-opacity:1;stroke:#ffffff;stroke-width:2.81137633;stroke-miterlimit:4;stroke-dasharray:none"
       d="m 321.88671,385.38444 -1.97694,19.78828 9.09393,8.92413 20.16482,-1.94003 50.01667,49.0827 -1.97694,19.78827 9.09393,8.92413 20.16483,-1.94003 -13.64092,-13.38617 0.98847,-9.89416 10.08243,-0.97001 13.64088,13.38621 1.97696,-19.7883 -9.09393,-8.92413 -20.16483,1.94004 -50.01667,-49.0827 1.97695,-19.78828 -9.09393,-8.92413 -20.16485,1.94004 13.64093,13.38616 -0.98847,9.89416 -10.08243,0.97001 -13.64089,-13.38619 z"
       id="rect3913"
       inkscape:connector-curvature="0"
       inkscape:export-filename="C:\Users\Anthony\Dropbox\path3141.png"
       inkscape:export-xdpi="90"
       inkscape:export-ydpi="90" />
    <path
       style="fill:#000000;stroke:#ffffff;stroke-width:2.4359107;stroke-linecap:butt;stroke-linejoin:miter;stroke-miterlimit:4;stroke-dasharray:none;stroke-opacity:1"
       d="m 419.67073,366.08495 29.51446,15.15457 -45.37128,29.47721 9.83815,5.05152 -44.12289,37.65731 9.83814,5.05151 -57.63177,38.2601 34.28475,-42.70883 -9.83814,-5.05152 39.20382,-40.18305 -9.83814,-5.05153 z"
       id="path3141"
       inkscape:connector-curvature="0"
       sodipodi:nodetypes="cccccccccccc"
       inkscape:export-xdpi="90"
       inkscape:export-ydpi="90" />
    <path
       inkscape:export-ydpi="90"
       inkscape:export-xdpi="90"
       inkscape:export-filename="C:\Users\Anthony\Dropbox\rect3043.png"
       sodipodi:nodetypes="ccccc"
       inkscape:connector-curvature="0"
       id="path4425"
       d="m 444.80608,698.85101 0,30.0128 150,-0.013 30,-30 z"
       style="fill:#000000;fill-opacity:1;stroke:#000000;stroke-width:1.22500646;stroke-linecap:butt;stroke-linejoin:round;stroke-miterlimit:4;stroke-dasharray:none;stroke-dashoffset:0;stroke-opacity:1" />
    <path
       inkscape:export-ydpi="90"
       inkscape:export-xdpi="90"
       inkscape:export-filename="C:\Users\Anthony\Dropbox\rect3043.png"
       sodipodi:nodetypes="ccccc"
       inkscape:connector-curvature="0"
       id="path4427"
       d="m 444.80608,778.85101 0,30.0128 70,-0.013 30,-30 z"
       style="fill:#000000;fill-opacity:1;stroke:#000000;stroke-width:1.22500646;stroke-linecap:butt;stroke-linejoin:round;stroke-miterlimit:4;stroke-dasharray:none;stroke-dashoffset:0;stroke-opacity:1" />
    <path
       inkscape:export-ydpi="90"
       inkscape:export-xdpi="90"
       inkscape:export-filename="C:\Users\Anthony\Dropbox\rect3043.png"
       sodipodi:nodetypes="ccccc"
       inkscape:connector-curvature="0"
       id="path4429"
       d="m 444.80608,738.85101 0,30.0128 110,-0.013 30,-30 z"
       style="fill:#000000;fill-opacity:1;stroke:#000000;stroke-width:1.22500646;stroke-linecap:butt;stroke-linejoin:round;stroke-miterlimit:4;stroke-dasharray:none;stroke-dashoffset:0;stroke-opacity:1" />
    <path
       inkscape:export-ydpi="90"
       inkscape:export-xdpi="90"
       inkscape:export-filename="C:\Users\Anthony\Dropbox\rect3043.png"
       sodipodi:nodetypes="ccccc"
       inkscape:connector-curvature="0"
       id="path4419"
       d="m 131.43707,695.1439 35,30 145,0.013 0,-30.0128 z"
       style="fill:#000000;fill-opacity:1;stroke:#000000;stroke-width:1.22500646;stroke-linecap:butt;stroke-linejoin:round;stroke-miterlimit:4;stroke-dasharray:none;stroke-dashoffset:0;stroke-opacity:1" />
    <path
       inkscape:export-ydpi="90"
       inkscape:export-xdpi="90"
       inkscape:export-filename="C:\Users\Anthony\Dropbox\rect3043.png"
       sodipodi:nodetypes="ccccc"
       inkscape:connector-curvature="0"
       id="path4421"
       d="m 171.43707,735.1439 35,30 105,0.013 0,-30.0128 z"
       style="fill:#000000;fill-opacity:1;stroke:#000000;stroke-width:1.22500646;stroke-linecap:butt;stroke-linejoin:round;stroke-miterlimit:4;stroke-dasharray:none;stroke-dashoffset:0;stroke-opacity:1" />
    <path
       inkscape:export-ydpi="90"
       inkscape:export-xdpi="90"
       inkscape:export-filename="C:\Users\Anthony\Dropbox\rect3043.png"
       sodipodi:nodetypes="ccccc"
       inkscape:connector-curvature="0"
       id="path4423"
       d="m 211.43707,775.1439 30,30 70,0.013 0,-30.0128 z"
       style="fill:#000000;fill-opacity:1;stroke:#000000;stroke-width:1.22500646;stroke-linecap:butt;stroke-linejoin:round;stroke-miterlimit:4;stroke-dasharray:none;stroke-dashoffset:0;stroke-opacity:1" />
    <path
       inkscape:export-ydpi="90"
       inkscape:export-xdpi="90"
       inkscape:export-filename="C:\Users\Anthony\Dropbox\path3141.png"
       inkscape:connector-curvature="0"
       id="path4446"
       d="m 351.85253,633.08409 0,32.06293 c -5.04042,1.64585 -9.88073,3.75591 -14.49151,6.26183 l -21.79301,-22.72815 -37.84514,39.36842 21.79301,22.72815 c -2.40767,4.79485 -4.43812,9.83336 -6.01956,15.07479 l -30.82233,0 0,55.66079 30.87807,0 c 1.57827,5.21646 3.56682,10.2432 5.96382,15.01681 l -21.79301,22.72816 37.84514,39.3684 21.79301,-22.72815 c 4.61078,2.50592 9.45109,4.67397 14.49151,6.31982 l 0,32.06293 53.50712,0 0,-32.06293 c 5.04043,-1.64585 9.88074,-3.8139 14.49151,-6.31982 l 21.79301,22.72815 37.84514,-39.3684 -21.79301,-22.72816 c 2.397,-4.77361 4.38556,-9.80035 5.96383,-15.01681 l 30.87806,0 0,-55.66079 -30.82233,0 c -1.58144,-5.24143 -3.61189,-10.27994 -6.01956,-15.07479 l 21.79301,-22.72815 -37.84514,-39.36842 -21.79301,22.72815 c -4.61077,-2.50592 -9.45108,-4.61598 -14.49151,-6.26183 l 0,-32.06293 -53.50712,0 z m 24.5241,74.15639 c 0.73498,0.0198 1.4599,0.058 2.22946,0.058 24.62594,0 44.58927,20.76685 44.58927,46.38398 0,25.61714 -19.96333,46.38399 -44.58927,46.38399 -24.62594,0 -44.58926,-20.76685 -44.58926,-46.38399 0,-24.01605 17.64593,-44.00866 40.13034,-46.38398 0.74949,-0.0793 1.49448,-0.0778 2.22946,-0.058 z"
       style="fill:#000000;fill-opacity:1;stroke:#ffffff;stroke-width:2.41222453;stroke-linecap:butt;stroke-linejoin:round;stroke-miterlimit:4;stroke-dasharray:none;stroke-dashoffset:0;stroke-opacity:1" />
    <g
       id="g4442"
       transform="translate(-230,456.15433)"
       inkscape:export-xdpi="90"
       inkscape:export-ydpi="90">
      <path
         id="path4433"
         d="m 608.06055,183.14453 a 12.5,12.5 0 0 0 -12.5,12.5 12.5,12.5 0 0 0 2.51562,7.5 l -0.0156,0 0,15.01172 -30,0 20,20 10,0 0,144.98828 10,20 10,-20 0,-144.98828 10,0 20,-20 -30,0 0,-15.01172 -0.0195,0 a 12.5,12.5 0 0 0 2.51953,-7.5 12.5,12.5 0 0 0 -12.5,-12.5 z"
         style="fill:#000000;stroke:#ffffff;stroke-width:2;stroke-linecap:butt;stroke-linejoin:round;stroke-miterlimit:4;stroke-dasharray:none;stroke-dashoffset:0;stroke-opacity:1"
         inkscape:connector-curvature="0" />
      <rect
         style="fill:#ffffff;fill-opacity:1;stroke:#000000;stroke-width:0.92546058;stroke-linecap:butt;stroke-linejoin:round;stroke-miterlimit:4;stroke-dasharray:none;stroke-dashoffset:0;stroke-opacity:1"
         id="rect4439"
         width="4.894156"
         height="140"
         x="605.77588"
         y="243.14388"
         inkscape:export-xdpi="90"
         inkscape:export-ydpi="90" />
    </g>
    <path
       inkscape:export-ydpi="90"
       inkscape:export-xdpi="90"
       inkscape:export-filename="C:\Users\Anthony\Dropbox\path3141.png"
       inkscape:connector-curvature="0"
       id="path4415"
       d="m 322.1796,710.86972 -1.97694,19.78828 9.09393,8.92413 20.16482,-1.94003 50.01667,49.0827 -1.97694,19.78827 9.09393,8.92413 20.16483,-1.94003 -13.64092,-13.38617 0.98847,-9.89416 10.08243,-0.97001 13.64088,13.38621 1.97696,-19.7883 -9.09393,-8.92413 -20.16483,1.94004 -50.01667,-49.0827 1.97695,-19.78828 -9.09393,-8.92413 -20.16485,1.94004 13.64093,13.38616 -0.98847,9.89416 -10.08243,0.97001 -13.64089,-13.38619 z"
       style="fill:#000000;fill-opacity:1;stroke:#ffffff;stroke-width:2.81137633;stroke-miterlimit:4;stroke-dasharray:none" />
    <path
       inkscape:export-ydpi="90"
       inkscape:export-xdpi="90"
       sodipodi:nodetypes="cccccccccccc"
       inkscape:connector-curvature="0"
       id="path4417"
       d="m 419.96362,691.57023 29.51446,15.15457 -45.37128,29.47721 9.83815,5.05152 -44.12289,37.65731 9.83814,5.05151 -57.63177,38.2601 34.28475,-42.70883 -9.83814,-5.05152 39.20382,-40.18305 -9.83814,-5.05153 z"
       style="fill:#000000;stroke:#ffffff;stroke-width:2.4359107;stroke-linecap:butt;stroke-linejoin:miter;stroke-miterlimit:4;stroke-dasharray:none;stroke-opacity:1" />
  </g>
</svg>
